#N canvas 0 662 1212 366 10;
#X obj 507 45 ctlin 75 1;
#X floatatom 495 77 5 0 0 0 - - -;
#X floatatom 904 40 5 0 0 0 - - -;
#X obj 904 18 ctlin 76 1;
#X floatatom 498 187 5 0 0 0 - - -;
#X floatatom 922 157 5 0 0 0 - - -;
#X obj 702 223 cos;
#X obj 705 157 / 127;
#X obj 529 155 expr (127 - $f1)/127;
#X obj 922 135 expr (127 - $f1)/127;
#X obj 414 141 / 127;
#X obj 875 76 / 127;
#X floatatom 875 98 5 0 0 0 - - -;
#X floatatom 414 163 5 0 0 0 - - -;
#X floatatom 702 245 5 0 0 0 - - -;
#X obj 765 216 sin;
#X floatatom 765 238 5 0 0 0 - - -;
#X obj 833 218 sqrt;
#X floatatom 833 240 5 0 0 0 - - -;
#X obj 495 242 cos;
#X floatatom 495 264 5 0 0 0 - - -;
#X obj 558 235 sin;
#X floatatom 558 257 5 0 0 0 - - -;
#X obj 627 238 sqrt;
#X floatatom 627 260 5 0 0 0 - - -;
#X obj 960 219 cos;
#X floatatom 960 241 5 0 0 0 - - -;
#X obj 1023 212 sin;
#X floatatom 1023 234 5 0 0 0 - - -;
#X obj 1092 215 sqrt;
#X floatatom 1092 237 5 0 0 0 - - -;
#X obj 1150 212 cos;
#X obj 1120 146 / 127;
#X floatatom 1150 234 5 0 0 0 - - -;
#X obj 1213 205 sin;
#X floatatom 1213 227 5 0 0 0 - - -;
#X obj 1281 207 sqrt;
#X floatatom 1281 229 5 0 0 0 - - -;
#X obj 399 194 outlet;
#X obj 497 289 outlet;
#X obj 551 286 outlet;
#X obj 627 288 outlet;
#X obj 681 285 outlet;
#X obj 774 275 outlet;
#X obj 828 272 outlet;
#X obj 937 274 outlet;
#X obj 991 271 outlet;
#X obj 1090 272 outlet;
#X obj 1144 269 outlet;
#X obj 1220 271 outlet;
#X obj 1274 268 outlet;
#X obj 464 208 outlet;
#X obj 873 125 outlet;
#X obj 904 181 outlet;
#X obj 489 18 inlet;
#X obj 873 14 inlet;
#X obj 66 51 ctlin 10 1;
#X floatatom 66 73 5 0 0 0 - - -;
#X floatatom 155 73 5 0 0 0 - - -;
#X obj 154 51 ctlin 11 1;
#X floatatom 242 74 5 0 0 0 - - -;
#X floatatom 332 74 5 0 0 0 - - -;
#X obj 242 52 ctlin 12 1;
#X obj 331 52 ctlin 13 1;
#X floatatom 67 135 5 0 0 0 - - -;
#X obj 66 113 ctlin 14 1;
#X floatatom 155 134 5 0 0 0 - - -;
#X floatatom 242 135 5 0 0 0 - - -;
#X floatatom 332 135 5 0 0 0 - - -;
#X obj 154 112 ctlin 15 1;
#X obj 242 113 ctlin 16 1;
#X obj 331 113 ctlin 17 1;
#X floatatom 62 212 5 0 0 0 - - -;
#X floatatom 151 212 5 0 0 0 - - -;
#X floatatom 238 213 5 0 0 0 - - -;
#X floatatom 328 213 5 0 0 0 - - -;
#X floatatom 63 274 5 0 0 0 - - -;
#X floatatom 151 273 5 0 0 0 - - -;
#X floatatom 238 274 5 0 0 0 - - -;
#X floatatom 328 274 5 0 0 0 - - -;
#X obj 62 190 ctlin 20 1;
#X obj 150 190 ctlin 22 1;
#X obj 238 191 ctlin 24 1;
#X obj 326 191 ctlin 26 1;
#X obj 62 252 ctlin 28 1;
#X obj 150 251 ctlin 30 1;
#X obj 238 253 ctlin 32 1;
#X obj 327 252 ctlin 34 1;
#X obj 657 52 ctlin 127 1;
#X obj 677 81 tgl 15 0 empty empty empty 17 7 0 10 -262144 -1 -1 0
1;
#X obj 432 291 outlet;
#X obj 635 118 i;
#X obj 674 119 i;
#X obj 706 115 i;
#X obj 614 72 bng 15 250 50 0 empty empty empty 17 7 0 10 -262144 -1
-1;
#X obj 589 50 metro 3000;
#X obj 588 24 tgl 15 0 empty empty empty 17 7 0 10 -262144 -1 -1 1
1;
#X obj 631 16 loadbang;
#X msg 711 23 1;
#X connect 0 0 1 0;
#X connect 0 0 91 1;
#X connect 1 0 7 0;
#X connect 1 0 8 0;
#X connect 1 0 10 0;
#X connect 2 0 9 0;
#X connect 2 0 11 0;
#X connect 2 0 32 0;
#X connect 2 0 93 1;
#X connect 3 0 2 0;
#X connect 4 0 19 0;
#X connect 4 0 21 0;
#X connect 4 0 23 0;
#X connect 4 0 51 0;
#X connect 5 0 25 0;
#X connect 5 0 27 0;
#X connect 5 0 29 0;
#X connect 5 0 53 0;
#X connect 6 0 14 0;
#X connect 7 0 6 0;
#X connect 7 0 15 0;
#X connect 7 0 17 0;
#X connect 8 0 4 0;
#X connect 9 0 5 0;
#X connect 10 0 13 0;
#X connect 11 0 12 0;
#X connect 12 0 52 0;
#X connect 13 0 38 0;
#X connect 14 0 42 0;
#X connect 15 0 16 0;
#X connect 16 0 43 0;
#X connect 17 0 18 0;
#X connect 18 0 44 0;
#X connect 19 0 20 0;
#X connect 20 0 39 0;
#X connect 21 0 22 0;
#X connect 22 0 40 0;
#X connect 23 0 24 0;
#X connect 24 0 41 0;
#X connect 25 0 26 0;
#X connect 26 0 45 0;
#X connect 27 0 28 0;
#X connect 28 0 46 0;
#X connect 29 0 30 0;
#X connect 30 0 47 0;
#X connect 31 0 33 0;
#X connect 32 0 31 0;
#X connect 32 0 34 0;
#X connect 32 0 36 0;
#X connect 33 0 48 0;
#X connect 34 0 35 0;
#X connect 35 0 49 0;
#X connect 36 0 37 0;
#X connect 37 0 50 0;
#X connect 54 0 1 0;
#X connect 54 0 91 1;
#X connect 55 0 2 0;
#X connect 56 0 57 0;
#X connect 59 0 58 0;
#X connect 62 0 60 0;
#X connect 63 0 61 0;
#X connect 65 0 64 0;
#X connect 69 0 66 0;
#X connect 70 0 67 0;
#X connect 71 0 68 0;
#X connect 80 0 72 0;
#X connect 81 0 73 0;
#X connect 82 0 74 0;
#X connect 83 0 75 0;
#X connect 84 0 76 0;
#X connect 85 0 77 0;
#X connect 86 0 78 0;
#X connect 87 0 79 0;
#X connect 88 0 89 0;
#X connect 89 0 92 1;
#X connect 91 0 8 0;
#X connect 91 0 7 0;
#X connect 91 0 10 0;
#X connect 92 0 90 0;
#X connect 93 0 11 0;
#X connect 93 0 9 0;
#X connect 93 0 32 0;
#X connect 94 0 91 0;
#X connect 94 0 92 0;
#X connect 94 0 93 0;
#X connect 95 0 94 0;
#X connect 96 0 95 0;
#X connect 97 0 98 0;
#X connect 98 0 96 0;
