#N canvas 536 201 1113 645 10;
#X obj 31 13 inlet;
#X obj 487 67 s slidetime;
#X obj 487 12 loadbang;
#X obj 29 45 s \$0-id;
#X obj 217 153 r \$0-id;
#X obj 217 209 r \$0-id;
#X obj 223 257 r \$0-id;
#X obj 520 151 r \$0-id;
#X obj 520 207 r \$0-id;
#X obj 526 255 r \$0-id;
#X obj 538 336 r \$0-id;
#X obj 210 82 NRPN_MIDI, f 43;
#X msg 488 40 50;
#X obj 771 154 r \$0-id;
#X obj 784 203 r \$0-id;
#X obj 33 281 nrpn_assign sample_offset_rcv;
#X obj 390 315 > 60;
#X floatatom 142 105 5 0 0 0 - - -, f 5;
#X obj 226 355 r \$0-id;
#X obj 50 342 tgl 15 0 empty empty empty 17 7 0 10 -262144 -1 -1 0
1;
#X obj 36 379 nrpn_assign on_off_rcv;
#X obj 233 415 noteout;
#X msg 231 380 48 \$1;
#X obj 86 309 tgl 15 0 empty empty empty 17 7 0 10 -262144 -1 -1 0
1;
#X obj 88 332 metro 1000;
#X obj 381 512 r \$0-id;
#X obj 191 536 ctl_assign sample_offset_rcv;
#X obj 27 233 ctl_assign grain_pitch_rcv;
#X obj 27 177 ctl_assign offset_random_rcv;
#X obj 330 175 ctl_assign random_panning_rcv;
#X obj 338 232 ctl_assign grain_size_rcv;
#X obj 336 279 ctl_assign grains_playing_rcv;
#X obj 348 360 ctl_assign reverse_rcv;
#X obj 581 178 ctl_assign grain_env_rcv;
#X obj 594 227 ctl_assign random_pitch_rcv;
#X connect 0 0 3 0;
#X connect 2 0 12 0;
#X connect 4 0 28 1;
#X connect 5 0 27 1;
#X connect 6 0 15 1;
#X connect 7 0 29 1;
#X connect 8 0 30 1;
#X connect 9 0 31 1;
#X connect 10 0 32 1;
#X connect 11 0 17 0;
#X connect 11 9 16 0;
#X connect 12 0 1 0;
#X connect 13 0 33 1;
#X connect 14 0 34 1;
#X connect 18 0 20 1;
#X connect 19 0 20 0;
#X connect 19 0 22 0;
#X connect 22 0 21 0;
#X connect 23 0 24 0;
#X connect 24 0 19 0;
#X connect 25 0 26 1;
