#N canvas 0 23 450 300 10;
#X obj 46 7 notein;
#X obj 46 184 / 127;
#X obj 209 227 / 127;
#X obj 362 229 / 127;
#X obj 361 253 s grain_pitch_rcv;
#X obj 539 221 / 127;
#X obj 540 157 ctlin 13 1;
#X obj 538 245 s grain_size_rcv;
#X obj 48 325 / 127;
#X obj 45 285 ctlin 14 1;
#X obj 50 233 line;
#X msg 50 211 \$1 20;
#X obj 215 323 / 127;
#X obj 371 324 / 127;
#X obj 559 317 / 127;
#X obj 215 301 ctlin 15 1;
#X obj 371 302 ctlin 16 1;
#X obj 559 295 ctlin 17 1;
#X obj 213 347 s grain_env_rcv;
#X obj 205 199 + 1;
#X obj 359 193 + 1;
#X obj 540 186 + 1;
#X obj 40 85 s touch_1;
#X obj 125 83 s touch_2;
#X obj 209 81 s touch_3;
#X obj 294 79 s touch_4;
#X obj 49 120 print touch1;
#X obj 497 432 / 127;
#X obj 497 410 ctlin 30 1;
#X floatatom 564 431 5 0 0 0 - - -, f 5;
#X obj 495 456 s sample_offset_rcv;
#X obj 51 256 s random_pitch_rcv;
#X obj 48 347 s random_panning_rcv;
#X obj 246 411 ctlin 50 1;
#X floatatom 246 433 5 0 0 0 - - -, f 5;
#X obj 246 452 / 127;
#X obj 214 7 key;
#X obj 44 52 sel 70 71 73 74;
#X obj 212 52 sel 49 50 51 52;
#X obj 235 495 s record_rcv;
#X obj 370 348 s grains_playing_rcv;
#X obj 428 11 notein;
#X obj 426 56 sel 70 71 73 74;
#X obj 421 90 s freeze_rcv;
#X obj 529 93 s reverse_rcv;
#X obj 557 342 s autoplay_length_rcv;
#X obj 208 253 s offset_random_rcv;
#X obj 46 162 ctlin 10 1;
#X obj 209 160 ctlin 11 1;
#X obj 360 157 ctlin 12 1;
#X connect 1 0 11 0;
#X connect 2 0 46 0;
#X connect 3 0 4 0;
#X connect 5 0 7 0;
#X connect 6 0 21 0;
#X connect 8 0 32 0;
#X connect 9 0 8 0;
#X connect 10 0 31 0;
#X connect 11 0 10 0;
#X connect 12 0 18 0;
#X connect 13 0 40 0;
#X connect 14 0 45 0;
#X connect 15 0 12 0;
#X connect 16 0 13 0;
#X connect 17 0 14 0;
#X connect 19 0 2 0;
#X connect 20 0 3 0;
#X connect 21 0 5 0;
#X connect 27 0 30 0;
#X connect 28 0 27 0;
#X connect 28 0 29 0;
#X connect 33 0 34 0;
#X connect 34 0 35 0;
#X connect 35 0 39 0;
#X connect 37 0 22 0;
#X connect 37 1 23 0;
#X connect 37 2 24 0;
#X connect 37 3 25 0;
#X connect 38 0 22 0;
#X connect 38 1 23 0;
#X connect 38 2 24 0;
#X connect 38 3 25 0;
#X connect 41 0 42 0;
#X connect 42 0 43 0;
#X connect 42 1 44 0;
#X connect 47 0 1 0;
#X connect 48 0 19 0;
#X connect 49 0 20 0;
