#N canvas 199 420 1261 443 10;
#X floatatom 179 255 5 0 0 0 - - -, f 5;
#X floatatom 268 255 5 0 0 0 - - -, f 5;
#X floatatom 355 256 5 0 0 0 - - -, f 5;
#X floatatom 445 256 5 0 0 0 - - -, f 5;
#X floatatom 549 257 5 0 0 0 - - -, f 5;
#X floatatom 637 256 5 0 0 0 - - -, f 5;
#X floatatom 724 257 5 0 0 0 - - -, f 5;
#X floatatom 814 257 5 0 0 0 - - -, f 5;
#X obj 19 401 outlet;
#X obj 77 317 outlet;
#X obj 157 318 outlet;
#X obj 211 318 outlet;
#X obj 341 323 outlet;
#X obj 436 323 outlet;
#X obj 556 318 outlet;
#X obj 616 319 outlet;
#X obj 709 318 outlet;
#X obj 771 314 outlet;
#X msg 59 86 \$2 \$1;
#X obj 59 65 pack;
#X msg 120 86 \$2 \$1;
#X obj 120 65 pack;
#X obj 59 105 route 1;
#X obj 120 105 route 1;
#X text 173 103 <--route channels messages on port 1;
#X text 163 73 <--pack to list places port # first \, variable second
;
#X text 181 45 <--data slider variable \, LSB \, MSB NRPN controller
inputs;
#X text 63 17 MIDI NRPN in;
#X obj 182 62 bng 15 250 50 0 empty empty empty 17 7 0 10 -262144 -1
-1;
#X floatatom 54 127 5 0 0 0 - - -, f 5;
#X obj 59 44 ctlin 38;
#X obj 128 43 ctlin 6;
#X floatatom 122 129 5 0 0 0 - - -, f 5;
#X obj 80 191 +;
#X floatatom 80 213 5 0 0 0 - - -, f 5;
#X obj 54 153 * 128;
#X obj 74 236 / 1023;
#X floatatom 76 260 5 0 0 0 - - -, f 5;
#X obj 19 192 notein;
#X obj 7 251 pack 0 0;
#X obj 7 273 route 60;
#X floatatom 7 295 5 0 0 0 - - -, f 5;
#X obj 14 329 > 0;
#X obj 299 388 ctlin 50;
#X obj 179 233 ctlin 10;
#X obj 267 233 ctlin 11;
#X obj 355 233 ctlin 12;
#X obj 444 234 ctlin 13;
#X obj 548 235 ctlin 14;
#X obj 636 234 ctlin 15;
#X obj 724 235 ctlin 16;
#X obj 812 235 ctlin 17;
#X floatatom 299 410 5 0 0 0 - - -, f 5;
#X floatatom 903 253 5 0 0 0 - - -, f 5;
#X floatatom 22 378 5 0 0 0 - - -, f 5;
#X floatatom 1032 251 5 0 0 0 - - -, f 5;
#X obj 903 231 ctlin 51;
#X obj 22 356 ctlin 52;
#X obj 1032 229 ctlin 53;
#X obj 909 285 outlet;
#X obj 1032 270 outlet;
#X connect 0 0 10 0;
#X connect 1 0 11 0;
#X connect 2 0 12 0;
#X connect 3 0 13 0;
#X connect 4 0 14 0;
#X connect 5 0 15 0;
#X connect 6 0 16 0;
#X connect 7 0 17 0;
#X connect 18 0 22 0;
#X connect 19 0 18 0;
#X connect 20 0 23 0;
#X connect 21 0 20 0;
#X connect 22 0 29 0;
#X connect 23 0 32 0;
#X connect 29 0 35 0;
#X connect 30 0 19 0;
#X connect 30 1 19 1;
#X connect 31 0 21 0;
#X connect 31 1 21 1;
#X connect 32 0 33 0;
#X connect 33 0 34 0;
#X connect 34 0 36 0;
#X connect 35 0 33 1;
#X connect 36 0 37 0;
#X connect 37 0 9 0;
#X connect 38 0 39 0;
#X connect 38 1 39 1;
#X connect 39 0 40 0;
#X connect 40 0 41 0;
#X connect 41 0 42 0;
#X connect 43 0 52 0;
#X connect 44 0 0 0;
#X connect 45 0 1 0;
#X connect 46 0 2 0;
#X connect 47 0 3 0;
#X connect 48 0 4 0;
#X connect 49 0 5 0;
#X connect 50 0 6 0;
#X connect 51 0 7 0;
#X connect 53 0 59 0;
#X connect 54 0 8 0;
#X connect 55 0 60 0;
#X connect 56 0 53 0;
#X connect 57 0 54 0;
#X connect 58 0 55 0;
