#N canvas 508 23 1113 855 10;
#X obj 129 199 wrap~;
#X obj 188 444 +~;
#X obj 182 371 *~;
#X obj 149 66 inlet~;
#X obj 215 420 samphold~;
#X obj 194 314 samphold~;
#X obj 201 235 sig~;
#X obj 330 289 samphold~;
#X obj 323 241 sig~;
#X obj 362 529 hsl 128 15 0 1 0 0 empty empty empty -2 -8 0 10 -262144
-1 -1 0 1;
#X obj 145 911 *~;
#X obj 585 760 line~;
#X obj 610 -3 loadbang;
#X obj 76 825 *~;
#X obj 382 571 * 220.5;
#X obj 364 646 +~;
#X obj 297 712 expr~ 220.5-$v1;
#X obj 202 2 float \$1;
#X obj 201 -24 loadbang;
#X floatatom 202 24 5 0 0 0 - - -, f 5;
#X obj 294 -33 t b f;
#X obj 495 610 samphold~;
#X obj 189 470 abs~;
#X obj 497 368 loadbang;
#X obj 495 407 metro 50;
#X floatatom 488 482 5 0 0 0 - - -, f 5;
#X obj 365 616 sig~;
#X obj 495 540 *;
#X obj 488 460 - 100;
#X obj 491 431 random 200;
#X obj 706 517 tgl 15 0 empty empty empty 17 7 0 10 -262144 -1 -1 0
1;
#X obj 167 345 *~;
#X obj 639 236 hsl 128 15 -1 1 0 0 empty empty empty -2 -8 0 10 -262144
-1 -1 6350 1;
#X obj 609 68 random 1000;
#X obj 608 43 metro 20;
#X obj 612 24 tgl 15 0 empty empty empty 17 7 0 10 -262144 -1 -1 1
1;
#X floatatom 610 138 5 0 0 0 - - -, f 5;
#X obj 598 460 sig~;
#X obj 611 95 / 1000;
#X obj 610 116 - 0.5;
#X floatatom 627 179 5 0 0 0 - - -, f 5;
#X obj 610 200 *;
#X obj 597 285 +;
#X obj 652 387 hsl 128 15 0 1 0 0 empty empty empty -2 -8 0 10 -262144
-1 -1 0 1;
#X obj 612 256 t b f;
#X obj 601 434 *;
#X obj 805 -1 loadbang;
#X obj 836 236 hsl 128 15 -1 1 0 0 empty empty empty -2 -8 0 10 -262144
-1 -1 6350 1;
#X obj 804 70 random 1000;
#X obj 803 45 metro 20;
#X obj 807 26 tgl 15 0 empty empty empty 17 7 0 10 -262144 -1 -1 1
1;
#X floatatom 805 140 5 0 0 0 - - -, f 5;
#X obj 806 97 / 1000;
#X obj 805 118 - 0.5;
#X floatatom 822 181 5 0 0 0 - - -, f 5;
#X obj 805 202 *;
#X obj 912 292 +;
#X obj 807 258 t b f;
#X obj 936 395 * 1;
#X msg 954 340 1;
#X msg 992 342 -1;
#X obj 954 372 t b f;
#X obj 954 318 sel 0 1;
#X obj 916 -4 tgl 15 0 empty empty empty 17 7 0 10 -262144 -1 -1 0
1;
#X floatatom 100 438 5 0 0 0 - - -, f 5;
#X obj 152 -11 bng 15 250 50 0 empty empty empty 17 7 0 10 -262144
-1 -1;
#X obj 415 366 s;
#X obj 701 555 sel 1 0;
#X obj 651 627 * 2000;
#X obj 731 620 * 5000;
#X obj 636 669 f;
#X obj 707 669 f;
#X msg 590 719 1 \$1;
#X msg 712 714 0 \$1;
#X obj 465 317 spigot;
#X obj 148 935 *~;
#X obj 741 843 line~;
#X obj 862 600 tgl 15 0 empty empty empty 17 7 0 10 -262144 -1 -1 0
1;
#X obj 857 638 sel 1 0;
#X obj 807 710 * 2000;
#X obj 887 703 * 5000;
#X obj 792 752 f;
#X obj 863 752 f;
#X msg 746 802 1 \$1;
#X msg 868 797 0 \$1;
#X floatatom 658 338 5 0 0 0 - - -, f 5;
#X obj 597 304 abs;
#X text 636 296 avoid negative numbers wrapping to end;
#X obj 96 368 * 8000;
#X obj 102 390 expr 8000-$f1;
#X obj 99 414 + 441;
#X obj 67 765 *~;
#X msg 168 618 set \$1;
#X obj 221 514 bng 15 250 50 0 empty empty empty 17 7 0 10 -262144
-1 -1;
#X obj 223 464 loadbang;
#X obj 220 536 i \$2;
#X obj 627 155 r offset_random_\$2;
#X obj 143 964 throw~ grainoutL_\$2;
#X obj 287 -70 r numgrains_\$2;
#X obj 594 -38 r sample_offset_\$2;
#X obj 790 -51 r grain_pitch_\$2;
#X obj 958 -29 r randoms_on_\$2;
#X obj 956 8 r random_metro_\$2;
#X obj 957 299 r reverse_\$2;
#X obj 824 160 r random_pitch_\$2;
#X obj 749 349 r samplelength_\$2;
#X obj 651 586 r attack_\$2;
#X obj 740 586 r release_\$2;
#X obj 807 669 r attack_\$2;
#X obj 896 669 r release_\$2;
#X obj 368 495 r global_pan_\$2;
#X obj 509 509 r random_panning_\$2;
#X obj 60 331 r grain_env_\$2;
#X obj 199 200 r grainsize_\$2;
#X obj 433 262 symbol \$2_\$1-loc;
#X obj 430 234 loadbang;
#X obj 871 559 r on_off_\$2;
#X obj 716 476 r \$1-on_\$2;
#X obj 42 572 tabread~ crown-\$2;
#X obj 288 747 tabread~ hann-\$2;
#X obj 133 664 tabread4~ sound-\$2-L;
#X obj 168 596 makefilename sound-%d-L;
#X floatatom 309 414 15 0 0 0 - - -, f 15;
#X obj 598 348 clip 0 1;
#X floatatom 676 454 15 0 0 0 - - -, f 15;
#X floatatom 585 488 15 0 0 0 - - -, f 15;
#X obj 802 417 -;
#X obj 820 382 t b f;
#X obj 313 800 *~;
#X obj 420 743 tabread~ hann-\$2;
#X obj 298 964 throw~ grainoutR_\$2;
#X obj 340 935 *~;
#X obj 346 899 *~;
#X floatatom 436 10 5 0 0 0 - - -, f 5;
#X obj 441 41 > \$1;
#X obj 436 -42 r grains_playing_\$2;
#X obj 445 -14 *;
#X floatatom 345 62 5 0 0 0 - - -, f 5;
#X obj 345 41 expr 1 / $f1;
#X obj 345 18 + 0;
#X obj 225 81 *;
#X floatatom 225 103 5 0 0 0 - - -, f 5;
#X obj 225 122 sig~;
#X obj 196 164 samphold~;
#X obj 148 108 +~;
#X obj 44 540 *~;
#X obj 85 507 line~;
#X msg 97 472 \$1 20;
#X obj 871 449 r numgrains_\$2;
#X obj 848 533 switch~;
#X obj 865 481 > \$1;
#X obj 860 510 tgl 15 0 empty empty empty 17 7 0 10 -262144 -1 -1 0
1;
#X obj 789 -22 * 4;
#X connect 0 0 7 1;
#X connect 0 0 5 1;
#X connect 0 0 4 1;
#X connect 0 0 21 1;
#X connect 0 0 31 0;
#X connect 0 0 145 0;
#X connect 1 0 22 0;
#X connect 2 0 1 0;
#X connect 3 0 143 1;
#X connect 3 0 144 0;
#X connect 4 0 1 1;
#X connect 5 0 2 1;
#X connect 6 0 5 0;
#X connect 7 0 31 1;
#X connect 8 0 7 0;
#X connect 9 0 14 0;
#X connect 10 0 75 0;
#X connect 11 0 10 1;
#X connect 11 0 132 1;
#X connect 12 0 35 0;
#X connect 13 0 10 0;
#X connect 14 0 26 0;
#X connect 15 0 16 0;
#X connect 15 0 129 0;
#X connect 16 0 119 0;
#X connect 17 0 19 0;
#X connect 18 0 17 0;
#X connect 19 0 140 1;
#X connect 20 0 136 0;
#X connect 20 1 136 1;
#X connect 21 0 15 1;
#X connect 22 0 120 0;
#X connect 23 0 24 0;
#X connect 24 0 29 0;
#X connect 25 0 27 0;
#X connect 26 0 15 0;
#X connect 27 0 21 0;
#X connect 28 0 25 0;
#X connect 29 0 28 0;
#X connect 30 0 67 0;
#X connect 30 0 74 1;
#X connect 31 0 2 0;
#X connect 33 0 38 0;
#X connect 34 0 33 0;
#X connect 35 0 34 0;
#X connect 36 0 41 0;
#X connect 37 0 4 0;
#X connect 38 0 39 0;
#X connect 39 0 36 0;
#X connect 40 0 41 1;
#X connect 41 0 32 0;
#X connect 41 0 44 0;
#X connect 42 0 74 0;
#X connect 42 0 85 0;
#X connect 42 0 86 0;
#X connect 44 0 42 0;
#X connect 44 1 42 1;
#X connect 45 0 37 0;
#X connect 45 0 125 0;
#X connect 46 0 50 0;
#X connect 48 0 52 0;
#X connect 49 0 48 0;
#X connect 50 0 49 0;
#X connect 51 0 55 0;
#X connect 52 0 53 0;
#X connect 53 0 51 0;
#X connect 54 0 55 1;
#X connect 55 0 47 0;
#X connect 55 0 57 0;
#X connect 56 0 58 0;
#X connect 57 0 56 0;
#X connect 57 1 56 1;
#X connect 58 0 8 0;
#X connect 59 0 61 0;
#X connect 60 0 61 0;
#X connect 61 0 58 0;
#X connect 61 1 58 1;
#X connect 62 0 59 0;
#X connect 62 1 60 0;
#X connect 63 0 50 0;
#X connect 63 0 35 0;
#X connect 64 0 147 0;
#X connect 65 0 17 0;
#X connect 67 0 70 0;
#X connect 67 1 71 0;
#X connect 68 0 70 1;
#X connect 69 0 71 1;
#X connect 70 0 72 0;
#X connect 71 0 73 0;
#X connect 72 0 11 0;
#X connect 73 0 11 0;
#X connect 74 0 66 0;
#X connect 75 0 97 0;
#X connect 76 0 75 1;
#X connect 76 0 131 1;
#X connect 77 0 78 0;
#X connect 78 0 81 0;
#X connect 78 1 82 0;
#X connect 79 0 81 1;
#X connect 80 0 82 1;
#X connect 81 0 83 0;
#X connect 82 0 84 0;
#X connect 83 0 76 0;
#X connect 84 0 76 0;
#X connect 86 0 123 0;
#X connect 88 0 89 0;
#X connect 89 0 90 0;
#X connect 90 0 64 0;
#X connect 91 0 13 0;
#X connect 91 0 128 0;
#X connect 92 0 120 0;
#X connect 93 0 95 0;
#X connect 94 0 93 0;
#X connect 95 0 121 0;
#X connect 96 0 40 0;
#X connect 98 0 20 0;
#X connect 99 0 42 0;
#X connect 100 0 152 0;
#X connect 101 0 63 0;
#X connect 102 0 49 1;
#X connect 102 0 34 1;
#X connect 102 0 24 1;
#X connect 103 0 62 0;
#X connect 104 0 54 0;
#X connect 105 0 126 0;
#X connect 106 0 68 0;
#X connect 107 0 69 0;
#X connect 108 0 79 0;
#X connect 109 0 80 0;
#X connect 110 0 9 0;
#X connect 111 0 27 1;
#X connect 112 0 88 0;
#X connect 113 0 6 0;
#X connect 113 0 122 0;
#X connect 114 0 66 1;
#X connect 115 0 114 0;
#X connect 116 0 77 0;
#X connect 118 0 91 1;
#X connect 119 0 13 1;
#X connect 120 0 91 0;
#X connect 121 0 92 0;
#X connect 122 0 127 0;
#X connect 123 0 43 0;
#X connect 123 0 45 0;
#X connect 126 0 45 1;
#X connect 126 0 124 0;
#X connect 127 0 126 0;
#X connect 127 1 126 1;
#X connect 128 0 132 0;
#X connect 129 0 128 1;
#X connect 131 0 130 0;
#X connect 132 0 131 0;
#X connect 133 0 134 0;
#X connect 133 0 139 0;
#X connect 134 0 30 0;
#X connect 135 0 136 0;
#X connect 136 0 133 0;
#X connect 137 0 140 0;
#X connect 138 0 137 0;
#X connect 139 0 138 0;
#X connect 140 0 141 0;
#X connect 141 0 142 0;
#X connect 142 0 143 0;
#X connect 143 0 144 1;
#X connect 144 0 0 0;
#X connect 145 0 118 0;
#X connect 146 0 145 1;
#X connect 147 0 146 0;
#X connect 148 0 150 0;
#X connect 150 0 151 0;
#X connect 151 0 149 0;
#X connect 152 0 56 0;
