#N canvas 345 23 1303 1005 10;
#X floatatom 42 715 5 0 0 0 - - -;
#X obj 79 690 bng 15 250 50 0 empty empty empty 17 7 0 10 -262144 -1
-1;
#X msg 868 191 \; pd dsp 1;
#X obj 869 123 loadbang;
#X obj 869 145 delay 3000;
#X obj 41 759 midiassigns;
#X obj 79 48 ys.audiomidisetup;
#X obj 178 958 ctl_assign sample_offset_rcv;
#X obj 89 915 s slidetime;
#X obj 89 860 loadbang;
#X msg 90 888 50;
#X obj 393 821 ys.snapshot 10;
#X obj 529 293 analog_assign grain_pitch_rcv;
#X obj 455 930 send analog0;
#X obj 523 253 r analog0;
#X obj 520 315 r analog1;
#X obj 503 387 r analog2;
#X obj 522 444 r analog3;
#X obj 516 360 analog_assign volume_rcv;
#X obj 972 671 analog_assign offset_random_rcv;
#X obj 1066 621 analog_assign grain_size_rcv;
#X obj 60 735 s \$0-id;
#X obj 355 930 r \$0-id;
#X obj 734 270 r \$0-id;
#X obj 721 337 r \$0-id;
#X obj 1177 648 r \$0-id;
#X obj 1232 594 r \$0-id;
#X floatatom 524 193 5 0 0 0 - - -;
#X obj 928 14 loadbang;
#X obj 600 197 print;
#X obj 935 106 s bela_setDigital @hv_param;
#X obj 518 217 digital_assign on_off_rcv;
#X obj 689 177 r \$0-id;
#X obj 500 835 ys.snapshot 10;
#X obj 629 817 ys.snapshot 10;
#X obj 542 899 send analog1;
#X obj 632 874 send analog2;
#X obj 537 616 s singlegrainvolume;
#X msg 536 591 0.5;
#X obj 535 565 loadbang;
#X obj 675 700 analog_assign sample_offset_rcv;
#X obj 852 671 r \$0-id;
#X obj 684 558 GPS_MIDI_CC, f 66;
#X floatatom 684 580 5 0 0 0 - - -;
#X obj 732 581 > 0.5;
#X obj 733 605 change;
#X obj 737 629 tgl 15 0 empty empty empty 17 7 0 10 -262144 -1 -1 1
1;
#X obj 882 616 r \$0-id;
#X obj 736 649 analog_assign reverse_rcv;
#X obj 388 872 spigot;
#X obj 522 874 spigot;
#X obj 622 848 spigot;
#X obj 357 848 tgl 15 0 empty empty empty 17 7 0 10 -262144 -1 -1 0
1;
#X obj 311 819 loadbang;
#X msg 311 841 1;
#X floatatom 451 893 5 0 0 0 - - -;
#X floatatom 763 514 5 0 0 0 - - -;
#X floatatom 954 514 5 0 0 0 - - -;
#X text 798 515 <--simulate location-->;
#X obj 1120 555 r \$0-id;
#X obj 943 591 analog_assign random_panning_rcv;
#X obj 893 751 r \$0-id;
#X obj 756 771 analog_assign attack_rcv;
#X obj 1227 773 r \$0-id;
#X obj 1081 801 analog_assign release_rcv;
#X obj 1167 696 r \$0-id;
#X obj 973 736 analog_assign grain_env_rcv;
#X text 220 868 turn off analog inputs;
#X obj 505 17 loadbang;
#X msg 505 39 hw 0 0 0;
#X obj 505 61 send bela_setMIDI;
#X obj 45 84 ys.granular_stereo arthur_piano1.wav 10;
#X obj 510 691 adc~ 3 4 5 6;
#X obj 740 825 ys.snapshot 10;
#X obj 733 856 spigot;
#X obj 743 882 send analog3;
#X obj 431 720 send;
#X obj 490 522 r on_off_rcv_\$0-id;
#X obj 468 654 makefilename on_off_rcv_%d;
#X msg 921 58 out 12;
#X obj 654 97 s bela_digitalOut12 @hv_param;
#X msg 657 72 1;
#X obj 756 51 t b b b;
#X obj 824 314 ctlin 75 1;
#X obj 904 314 ctlin 76 1;
#X obj 824 336 t b;
#X obj 904 336 t b;
#X floatatom 1057 462 5 0 0 0 - - -;
#X obj 1028 433 dac~ 3;
#X obj 1029 406 line~;
#X obj 674 643 line;
#X obj 1147 876 r \$0-id;
#X floatatom 968 823 5 0 0 0 - - -;
#X obj 970 912 analog_assign random_pitch_rcv;
#X obj 968 802 * 0.1;
#X floatatom 978 644 5 0 0 0 - - -;
#X obj 51 821 s pd;
#X msg 52 797 audio-properties;
#X msg 674 622 \$1 1000;
#X obj 969 763 expr 1-$f1;
#X obj 975 621 * 0.2;
#X msg 849 360 1 \, 0 100;
#X obj 1027 322 ctlin 127 1;
#X obj 1028 350 tgl 15 0 empty empty empty 17 7 0 10 -262144 -1 -1
0 1;
#X msg 987 54 in 11;
#X obj 477 490 r bela_digitalIn11;
#X obj 234 838 dac~;
#X obj 243 783 line~;
#X obj 335 702 ctlin 127 1;
#X obj 336 730 tgl 15 0 empty empty empty 17 7 0 10 -262144 -1 -1 1
1;
#X obj 224 816 *~;
#X obj 260 814 *~;
#X msg 97 775 midi-properties;
#X obj 253 726 i;
#X obj 174 746 metro 3000;
#X obj 173 702 tgl 15 0 empty empty empty 17 7 0 10 -262144 -1 -1 1
1;
#X obj 216 694 loadbang;
#X msg 216 715 1;
#X msg 336 753 \$1 200;
#X msg 1028 373 \$1 200;
#X connect 0 0 5 0;
#X connect 0 0 21 0;
#X connect 0 0 78 0;
#X connect 1 0 0 0;
#X connect 3 0 4 0;
#X connect 4 0 2 0;
#X connect 9 0 10 0;
#X connect 10 0 8 0;
#X connect 11 0 49 0;
#X connect 14 0 12 0;
#X connect 15 0 18 0;
#X connect 22 0 7 1;
#X connect 23 0 12 1;
#X connect 24 0 18 1;
#X connect 25 0 19 1;
#X connect 26 0 20 1;
#X connect 27 0 31 0;
#X connect 28 0 82 0;
#X connect 32 0 31 1;
#X connect 33 0 50 0;
#X connect 34 0 51 0;
#X connect 38 0 37 0;
#X connect 39 0 38 0;
#X connect 41 0 40 1;
#X connect 42 1 43 0;
#X connect 42 2 44 0;
#X connect 42 3 20 0;
#X connect 42 4 62 0;
#X connect 42 5 66 0;
#X connect 42 6 100 0;
#X connect 42 10 60 0;
#X connect 42 11 99 0;
#X connect 42 12 64 0;
#X connect 43 0 98 0;
#X connect 44 0 45 0;
#X connect 45 0 46 0;
#X connect 46 0 48 0;
#X connect 47 0 48 1;
#X connect 49 0 13 0;
#X connect 49 0 55 0;
#X connect 50 0 35 0;
#X connect 51 0 36 0;
#X connect 52 0 49 1;
#X connect 52 0 50 1;
#X connect 52 0 51 1;
#X connect 52 0 74 1;
#X connect 53 0 54 0;
#X connect 54 0 52 0;
#X connect 56 0 42 0;
#X connect 57 0 42 1;
#X connect 59 0 60 1;
#X connect 61 0 62 1;
#X connect 63 0 64 1;
#X connect 65 0 66 1;
#X connect 68 0 69 0;
#X connect 69 0 70 0;
#X connect 71 0 0 0;
#X connect 71 1 110 0;
#X connect 71 2 111 0;
#X connect 72 0 11 0;
#X connect 72 1 33 0;
#X connect 72 2 34 0;
#X connect 72 3 73 0;
#X connect 73 0 74 0;
#X connect 74 0 75 0;
#X connect 78 0 76 1;
#X connect 79 0 30 0;
#X connect 81 0 80 0;
#X connect 82 0 81 0;
#X connect 82 1 79 0;
#X connect 82 2 104 0;
#X connect 83 0 85 0;
#X connect 84 0 86 0;
#X connect 85 0 101 0;
#X connect 86 0 101 0;
#X connect 89 0 88 0;
#X connect 90 0 40 0;
#X connect 91 0 93 1;
#X connect 92 0 93 0;
#X connect 94 0 92 0;
#X connect 95 0 19 0;
#X connect 97 0 96 0;
#X connect 98 0 90 0;
#X connect 99 0 94 0;
#X connect 100 0 95 0;
#X connect 102 0 103 0;
#X connect 103 0 119 0;
#X connect 104 0 30 0;
#X connect 105 0 76 0;
#X connect 107 0 111 1;
#X connect 107 0 110 1;
#X connect 108 0 109 0;
#X connect 109 0 118 0;
#X connect 109 0 113 1;
#X connect 110 0 106 0;
#X connect 111 0 106 1;
#X connect 112 0 96 0;
#X connect 113 0 118 0;
#X connect 114 0 113 0;
#X connect 115 0 114 0;
#X connect 116 0 117 0;
#X connect 117 0 115 0;
#X connect 118 0 107 0;
#X connect 119 0 89 0;
