#N canvas 87 311 885 647 10;
#X floatatom 43 37 5 0 0 0 - - -, f 5;
#X obj 88 257 send;
#X obj 42 10 inlet;
#X floatatom 180 128 5 0 0 0 - - -, f 5;
#X obj 340 121 symbol \$1;
#X obj 341 97 bng 15 250 50 0 empty empty empty 17 7 0 10 -262144 -1
-1;
#X obj 340 143 print;
#X obj 180 99 inlet;
#X obj 175 151 makefilename \$1_%d;
#X obj 175 173 print;
#X connect 0 0 1 0;
#X connect 2 0 0 0;
#X connect 3 0 8 0;
#X connect 4 0 6 0;
#X connect 5 0 4 0;
#X connect 7 0 3 0;
#X connect 8 0 9 0;
#X connect 8 0 1 1;
