#N canvas 7 122 1046 773 10;
#X obj 164 67 ctlin 75 1;
#X floatatom 178 139 5 0 0 0 - - -;
#X floatatom 624 137 5 0 0 0 - - -;
#X obj 637 54 ctlin 76 1;
#X floatatom 181 249 5 0 0 0 - - -;
#X floatatom 649 232 5 0 0 0 - - -;
#X obj 385 285 cos;
#X obj 388 219 / 127;
#X obj 212 217 expr (127 - $f1)/127;
#X obj 649 210 expr (127 - $f1)/127;
#X obj 94 241 / 127;
#X floatatom 94 263 5 0 0 0 - - -;
#X floatatom 385 307 5 0 0 0 - - -;
#X obj 448 278 sin;
#X floatatom 448 300 5 0 0 0 - - -;
#X obj 516 280 sqrt;
#X floatatom 516 302 5 0 0 0 - - -;
#X obj 178 304 cos;
#X floatatom 178 326 5 0 0 0 - - -;
#X obj 241 297 sin;
#X floatatom 241 319 5 0 0 0 - - -;
#X obj 310 300 sqrt;
#X floatatom 310 322 5 0 0 0 - - -;
#X obj 643 281 cos;
#X floatatom 643 303 5 0 0 0 - - -;
#X obj 706 274 sin;
#X floatatom 706 296 5 0 0 0 - - -;
#X obj 775 277 sqrt;
#X floatatom 775 299 5 0 0 0 - - -;
#X obj 833 274 cos;
#X obj 803 208 / 127;
#X floatatom 833 296 5 0 0 0 - - -;
#X obj 896 267 sin;
#X floatatom 896 289 5 0 0 0 - - -;
#X obj 964 269 sqrt;
#X floatatom 964 291 5 0 0 0 - - -;
#X obj 270 67 inlet;
#X obj 559 51 inlet;
#X obj 152 475 ctlin 10 1;
#X floatatom 152 497 5 0 0 0 - - -;
#X floatatom 241 497 5 0 0 0 - - -;
#X obj 240 475 ctlin 11 1;
#X floatatom 328 498 5 0 0 0 - - -;
#X floatatom 418 498 5 0 0 0 - - -;
#X obj 328 476 ctlin 12 1;
#X obj 417 476 ctlin 13 1;
#X floatatom 153 559 5 0 0 0 - - -;
#X obj 152 537 ctlin 14 1;
#X floatatom 241 558 5 0 0 0 - - -;
#X floatatom 328 559 5 0 0 0 - - -;
#X floatatom 418 559 5 0 0 0 - - -;
#X obj 240 536 ctlin 15 1;
#X obj 328 537 ctlin 16 1;
#X obj 417 537 ctlin 17 1;
#X floatatom 148 636 5 0 0 0 - - -;
#X floatatom 237 636 5 0 0 0 - - -;
#X floatatom 324 637 5 0 0 0 - - -;
#X floatatom 414 637 5 0 0 0 - - -;
#X floatatom 149 698 5 0 0 0 - - -;
#X floatatom 237 697 5 0 0 0 - - -;
#X floatatom 324 698 5 0 0 0 - - -;
#X floatatom 414 698 5 0 0 0 - - -;
#X obj 148 614 ctlin 20 1;
#X obj 236 614 ctlin 22 1;
#X obj 324 615 ctlin 24 1;
#X obj 412 615 ctlin 26 1;
#X obj 148 676 ctlin 28 1;
#X obj 236 675 ctlin 30 1;
#X obj 324 677 ctlin 32 1;
#X obj 413 676 ctlin 34 1;
#X obj 370 151 i;
#X obj 405 150 i;
#X obj 381 116 bng 15 250 50 0 empty empty empty 17 7 0 10 -262144
-1 -1;
#X obj 377 93 metro 3000;
#X obj 380 72 tgl 15 0 empty empty empty 17 7 0 10 -262144 -1 -1 1
1;
#X obj 379 22 loadbang;
#X msg 382 46 1;
#X obj 777 365 s offset_random_rcv;
#X obj 701 484 s grains_playing_rcv;
#X obj 313 357 s grain_size_rcv;
#X obj 417 415 s grain_env_rcv;
#X obj 701 398 * 10;
#X obj 701 419 + 1;
#X obj 701 440 i;
#X obj 701 461 * 0.1;
#X obj 237 397 s random_pitch_rcv;
#X obj 442 344 s reverse_rcv;
#X obj 158 367 s attack_rcv;
#X obj 617 333 s release_rcv;
#X obj 19 327 s sample_offset_rcv;
#X obj 444 322 > 0.5;
#X obj 835 333 s random_panning_rcv;
#X connect 0 0 1 0;
#X connect 0 0 70 1;
#X connect 1 0 7 0;
#X connect 1 0 8 0;
#X connect 1 0 10 0;
#X connect 2 0 9 0;
#X connect 2 0 30 0;
#X connect 3 0 2 0;
#X connect 3 0 71 1;
#X connect 4 0 17 0;
#X connect 4 0 19 0;
#X connect 4 0 21 0;
#X connect 5 0 23 0;
#X connect 5 0 25 0;
#X connect 5 0 27 0;
#X connect 6 0 12 0;
#X connect 7 0 6 0;
#X connect 7 0 13 0;
#X connect 7 0 15 0;
#X connect 8 0 4 0;
#X connect 9 0 5 0;
#X connect 10 0 11 0;
#X connect 11 0 89 0;
#X connect 12 0 80 0;
#X connect 13 0 14 0;
#X connect 14 0 90 0;
#X connect 15 0 16 0;
#X connect 17 0 18 0;
#X connect 18 0 87 0;
#X connect 19 0 20 0;
#X connect 20 0 85 0;
#X connect 21 0 22 0;
#X connect 22 0 79 0;
#X connect 23 0 24 0;
#X connect 24 0 88 0;
#X connect 25 0 26 0;
#X connect 26 0 81 0;
#X connect 27 0 28 0;
#X connect 28 0 77 0;
#X connect 29 0 31 0;
#X connect 30 0 29 0;
#X connect 30 0 32 0;
#X connect 30 0 34 0;
#X connect 31 0 91 0;
#X connect 32 0 33 0;
#X connect 34 0 35 0;
#X connect 36 0 1 0;
#X connect 36 0 70 1;
#X connect 37 0 2 0;
#X connect 37 0 71 1;
#X connect 38 0 39 0;
#X connect 41 0 40 0;
#X connect 44 0 42 0;
#X connect 45 0 43 0;
#X connect 47 0 46 0;
#X connect 51 0 48 0;
#X connect 52 0 49 0;
#X connect 53 0 50 0;
#X connect 62 0 54 0;
#X connect 63 0 55 0;
#X connect 64 0 56 0;
#X connect 65 0 57 0;
#X connect 66 0 58 0;
#X connect 67 0 59 0;
#X connect 68 0 60 0;
#X connect 69 0 61 0;
#X connect 70 0 8 0;
#X connect 70 0 7 0;
#X connect 70 0 10 0;
#X connect 71 0 9 0;
#X connect 71 0 30 0;
#X connect 72 0 70 0;
#X connect 72 0 71 0;
#X connect 73 0 72 0;
#X connect 74 0 73 0;
#X connect 75 0 76 0;
#X connect 76 0 74 0;
#X connect 81 0 82 0;
#X connect 82 0 83 0;
#X connect 83 0 84 0;
#X connect 84 0 78 0;
#X connect 90 0 86 0;
