#N canvas 364 23 1046 773 10;
#X obj 164 67 ctlin 75 1;
#X obj 637 54 ctlin 76 1;
#X obj 270 67 inlet;
#X obj 559 51 inlet;
#X obj 370 151 i;
#X obj 405 150 i;
#X obj 381 116 bng 15 250 50 0 empty empty empty 17 7 0 10 -262144
-1 -1;
#X obj 380 72 tgl 15 0 empty empty empty 17 7 0 10 -262144 -1 -1 0
1;
#X obj 379 22 loadbang;
#X msg 382 46 1;
#X obj 495 711 s offset_random_rcv;
#X obj 212 577 s random_pitch_rcv;
#X obj 221 718 s reverse_rcv;
#X obj 654 556 s attack_rcv;
#X obj 367 708 s release_rcv;
#X obj 340 556 s sample_offset_rcv;
#X obj 223 696 > 0.5;
#X obj 754 553 s random_panning_rcv;
#X obj 437 49 r snapshot_on;
#X floatatom 70 530 5 0 0 0 - - -;
#X floatatom 223 533 5 0 0 0 - - -;
#X floatatom 340 535 5 0 0 0 - - -;
#X obj 70 552 s grain_size_rcv;
#X obj 223 512 ys.randomslopes2 2;
#X obj 351 196 s midi1;
#X obj 405 195 s midi2;
#X obj 53 715 s grain_density_rcv;
#X obj 66 421 r midi1;
#X obj 499 535 > 0.5;
#X obj 497 557 s reverse_random_rcv;
#X obj 377 93 metro 200;
#X obj 341 513 ys.randomslopes2 7;
#X floatatom 70 658 5 0 0 0 - - -;
#X floatatom 223 661 5 0 0 0 - - -;
#X floatatom 340 663 5 0 0 0 - - -;
#X obj 66 605 r midi2;
#X obj 70 637 ys.randomslopes2 9;
#X floatatom 508 508 5 0 0 0 - - -;
#X floatatom 661 511 5 0 0 0 - - -;
#X floatatom 778 513 5 0 0 0 - - -;
#X obj 779 491 ys.randomslopes2 70;
#X floatatom 493 661 5 0 0 0 - - -;
#X floatatom 666 665 5 0 0 0 - - -;
#X obj 753 694 s grainplay_chance_rcv;
#X obj 492 682 * 0.2;
#X obj 217 559 * 0.1;
#X obj 70 509 ys.randomslopes2 24;
#X obj 661 490 ys.randomslopes2 25;
#X obj 341 641 ys.randomslopes2 100;
#X obj 667 643 ys.randomslopes2 132;
#X obj 493 640 ys.randomslopes2 10122;
#X obj 223 640 ys.randomslopes2 67;
#X obj 508 487 ys.randomslopes2 68;
#X obj 60 688 * 0.3;
#X connect 0 0 4 1;
#X connect 1 0 5 1;
#X connect 2 0 4 1;
#X connect 3 0 5 1;
#X connect 4 0 24 0;
#X connect 5 0 25 0;
#X connect 6 0 4 0;
#X connect 6 0 5 0;
#X connect 7 0 30 0;
#X connect 8 0 9 0;
#X connect 9 0 7 0;
#X connect 16 0 12 0;
#X connect 18 0 7 0;
#X connect 19 0 22 0;
#X connect 20 0 45 0;
#X connect 21 0 15 0;
#X connect 23 0 20 0;
#X connect 27 0 23 0;
#X connect 27 0 31 0;
#X connect 27 0 40 0;
#X connect 27 0 46 0;
#X connect 27 0 47 0;
#X connect 27 0 52 0;
#X connect 28 0 29 0;
#X connect 30 0 6 0;
#X connect 31 0 21 0;
#X connect 32 0 53 0;
#X connect 33 0 16 0;
#X connect 34 0 14 0;
#X connect 35 0 36 0;
#X connect 35 0 48 0;
#X connect 35 0 49 0;
#X connect 35 0 50 0;
#X connect 35 0 51 0;
#X connect 36 0 32 0;
#X connect 37 0 28 0;
#X connect 38 0 13 0;
#X connect 39 0 17 0;
#X connect 40 0 39 0;
#X connect 41 0 44 0;
#X connect 42 0 43 0;
#X connect 44 0 10 0;
#X connect 45 0 11 0;
#X connect 46 0 19 0;
#X connect 47 0 38 0;
#X connect 48 0 34 0;
#X connect 49 0 42 0;
#X connect 50 0 41 0;
#X connect 51 0 33 0;
#X connect 52 0 37 0;
#X connect 53 0 26 0;
