#N canvas 71 371 450 300 10;
#X floatatom 50 27 5 0 0 0 - - -, f 5;
#X obj 140 225 send;
#X msg 56 119 \$1 \$2;
#X obj 62 156 line;
#X obj 41 86 pack 0 0;
#X obj 126 66 r slidetime;
#X msg 224 168 symbol grain_env_rcv_\$1;
#X obj 49 6 inlet;
#X floatatom 166 124 5 0 0 0 - - -, f 5;
#X obj 340 121 symbol \$1;
#X obj 339 85 bng 15 250 50 0 empty empty empty 17 7 0 10 -262144 -1
-1;
#X obj 340 143 print;
#X obj 236 83 inlet;
#X obj 254 202 makefilename \$1_%d;
#X obj 254 224 print;
#X obj 55 60 clip 0 1;
#X connect 0 0 15 0;
#X connect 2 0 3 0;
#X connect 3 0 1 0;
#X connect 4 0 2 0;
#X connect 5 0 4 1;
#X connect 7 0 0 0;
#X connect 8 0 6 0;
#X connect 8 0 13 0;
#X connect 9 0 11 0;
#X connect 10 0 9 0;
#X connect 12 0 8 0;
#X connect 13 0 14 0;
#X connect 13 0 1 1;
#X connect 15 0 4 0;
