#N canvas 294 72 788 441 10;
#X floatatom 610 44 5 0 0 0 sample_seconds - -;
#X obj 51 130 bng 15 250 50 0 reset_pitch reset_pitch_rcv reset_pitch
17 7 0 10 -262144 -1 -1;
#N canvas 124 419 1091 567 clock 0;
#X obj 61 279 phasor~ 0.1;
#X floatatom 76 144 5 0 0 0 - - -;
#X floatatom 177 94 5 0 0 0 - - -;
#X obj 177 113 / 1000;
#X obj 179 144 * 44100;
#X floatatom 180 174 5 0 0 0 - - -;
#X obj 73 115 expr 1000/$f1;
#X obj 177 72 * 1000;
#X obj 75 166 sig~;
#X obj 54 213 phasor~;
#X obj 99 249 samphold~;
#X obj 75 188 *~ 2;
#X obj 87 320 outlet~;
#X obj 179 36 r grain_size;
#X obj 180 202 s grainsize;
#X connect 0 0 12 0;
#X connect 1 0 8 0;
#X connect 2 0 3 0;
#X connect 2 0 6 0;
#X connect 3 0 4 0;
#X connect 4 0 5 0;
#X connect 5 0 14 0;
#X connect 6 0 1 0;
#X connect 7 0 2 0;
#X connect 8 0 10 0;
#X connect 8 0 11 0;
#X connect 9 0 10 1;
#X connect 10 0 0 0;
#X connect 11 0 9 0;
#X connect 13 0 7 0;
#X restore 121 222 pd clock;
#X obj 293 380 bng 15 250 50 0 defaults defaults_rcv defaults 17 7
0 10 -262144 -1 -1;
#N canvas 516 193 916 835 settings 0;
#X obj 73 23 loadbang;
#X obj 52 276 r reset_pitch_\$0;
#X obj 50 319 s grain_pitch_rcv_\$0;
#X obj 766 80 i \$0;
#X obj 651 61 bng 15 250 50 0 empty empty empty 17 7 0 10 -262144 -1
-1;
#X obj 267 130 i \$0;
#X obj 257 92 bng 15 250 50 0 empty empty empty 17 7 0 10 -262144 -1
-1;
#X obj 633 31 inlet;
#X obj 253 61 inlet;
#X msg 50 297 0.25;
#X msg 666 120 \; grain_pitch_rcv 0.25 \; grain_size_rcv 0.5 \; sample_offset_rcv
0.5 \; offset_random_rcv 0.02 \; random_pitch_rcv 0 \; random_panning_rcv
0.2 \; numgrains_rcv bang \; global_pan_rcv 0.5 \; grain_env_rcv 1
\; make_tables_rcv bang \; grains_playing_rcv 1 \; autoplay_speed_rcv
1 \; autoplay_reverse_rcv 0 \; freeze_rcv 0 \; autoplay_on_off_rcv
0 \; on_off_rcv 1 \; attack_rcv 0.02 \; release_rcv 0.02 \; volume_rcv
1 \; num_channels_rcv 2 \;;
#X msg 262 159 \; sample_offset_rcv send sample_offset \; rec_location_rcv
send rec_location \; record_rcv send record \; offset_random_rcv send
offset_random \; input_monitor_rcv send input_monitor \; grain_pitch_rcv
send grain_pitch \; random_pitch_rcv send random_pitch \; reverse_rcv
send reverse \; reset_pitch_rcv send reset_pitch \; grain_size_rcv
send grain_size \; grain_env_rcv send grain_env \; grains_playing_rcv
send grains_playing \; global_pan_rcv send global_pan \; random_panning_rcv
send random_panning \; attack_rcv send attack \; release_rcv send release
\; autoplay_on_off_rcv send autoplay_on_off \; autoplay_speed_rcv send
autoplay_speed \; autoplay_reverse_rcv send autoplay_reverse \; freeze_rcv
send freeze \; on_off_rcv send on_off \; defaults_rcv send defaults
\; volume_rcv send volume \; select_sound_rcv send select_sound \;
;
#X connect 1 0 9 0;
#X connect 5 0 11 0;
#X connect 6 0 5 0;
#X connect 7 0 4 0;
#X connect 8 0 6 0;
#X connect 9 0 2 0;
#X restore 527 179 pd settings;
#X obj 131 45 bng 15 250 50 0 select_sound select_sound_rcv select_sound
17 7 0 10 -262144 -1 -1;
#X obj 623 131 loadbang;
#X obj 520 155 t b b b;
#X obj 710 135 bng 15 250 50 0 empty empty empty 17 7 0 10 -262144
-1 -1;
#X floatatom 307 73 5 0 0 0 - - -;
#X text 246 72 channels;
#X obj 375 175 loadbang;
#X msg 406 238 16;
#X obj 306 24 r num_channels_rcv;
#X obj 309 145 s num_channels;
#X obj 609 17 r sample_seconds_rcv;
#X obj 376 293 s numgrains;
#X msg 263 249 vis 4 1;
#X msg 445 239 32;
#X text 198 308 number of instances of y_grain_stereo should equal
the numgrains (I recognise this is silly);
#X msg 375 238 10;
#X obj 129 282 clone y_grain_stereo 10;
#X connect 2 0 21 0;
#X connect 6 0 7 0;
#X connect 7 0 4 1;
#X connect 7 1 4 0;
#X connect 8 0 7 0;
#X connect 9 0 14 0;
#X connect 11 0 20 0;
#X connect 12 0 16 0;
#X connect 13 0 9 0;
#X connect 15 0 0 0;
#X connect 17 0 21 1;
#X connect 18 0 16 0;
#X connect 20 0 16 0;
#X coords 0 441 1 440 400 600 0;
